<svg xmlns="http://www.w3.org/2000/svg" xmlns:xlink="http://www.w3.org/1999/xlink" version="1.1" x="0px" y="0px" viewBox="0 0 32 40" enable-background="new 0 0 32 32" xml:space="preserve"><g><path d="M5,26c-1.654,0-3-1.346-3-3v-4c0-3.86,3.141-7,7-7h8V7c0-0.376,0.211-0.72,0.546-0.891c0.334-0.17,0.737-0.14,1.042,0.083   l11,8C29.847,14.379,30,14.68,30,15s-0.153,0.621-0.412,0.809l-11,8c-0.304,0.222-0.707,0.252-1.042,0.083   C17.211,23.72,17,23.376,17,23v-5H9c-0.552,0-1,0.449-1,1v4C8,24.654,6.654,26,5,26z M9,14c-2.757,0-5,2.243-5,5v4   c0,0.551,0.448,1,1,1s1-0.449,1-1v-4c0-1.654,1.346-3,3-3h9c0.553,0,1,0.448,1,1v4.036L27.3,15L19,8.964V13c0,0.552-0.447,1-1,1H9z   "/></g><text x="0" y="47" fill="#000000" font-size="5px" font-weight="bold" font-family="'Helvetica Neue', Helvetica, Arial-Unicode, Arial, Sans-serif">Created by wahyakup</text><text x="0" y="52" fill="#000000" font-size="5px" font-weight="bold" font-family="'Helvetica Neue', Helvetica, Arial-Unicode, Arial, Sans-serif">from the Noun Project</text></svg>